{"title":"Pain &amp; Gain 2013 CAMRip XviD AC3 - TODE","uid":8437865,"size":733285317,"categoryP":"video","categoryS":"movies","magnet":"?xt=urn:btih:c37fdab8088b73e1d386d697b292241e4eff14a6&amp;dn=Pain+%26amp%3B+Gain+2013+CAMRip+XviD+AC3+-+TODE&amp;tr=udp%3A%2F%2Ftracker.openbittorrent.com%3A80&amp;tr=udp%3A%2F%2Fopen.demonii.com%3A1337&amp;tr=udp%3A%2F%2Ftracker.coppersurfer.tk%3A6969&amp;tr=udp%3A%2F%2Fexodus.desync.com%3A6969","seeders":0,"leechers":0,"uploader":"Gh0stNet","files":2,"time":1367686256,"description":"\tA trio of bodybuilders in Florida get caught up in an extortion ring and a kidnapping scheme that goes terribly wrong.\n\n\n\nDirector:\nMichael Bay\n\nWriters:\nChristopher Markus (screenplay), Stephen McFeely (screenplay)\n\nStars:\nMark Wahlberg, Dwayne Johnson, Anthony Mackie\n\nGenres:\nAction |  Comedy |  Crime |  Drama |  Thriller\n\nCountry:\nUSA\n\nLanguage:\nEnglish\n\n\nThanks: 26k\n\n\nFormat                                   : AVI\nFormat/Info                              : Audio Video Interleave\nFile size                                : 699 MiB\nDuration                                 : 2h 0mn\nOverall bit rate                         : 811 Kbps\nWriting application                      : Lavf55.3.100\n\nVideo\nID                                       : 0\nFormat                                   : MPEG-4 Visual\nFormat profile                           : Simple@L3\nFormat settings, BVOP                    : No\nFormat settings, QPel                    : No\nFormat settings, GMC                     : No warppoints\nFormat settings, Matrix                  : Default (H.263)\nCodec ID                                 : XVID\nCodec ID/Hint                            : XviD\nDuration                                 : 2h 0mn\nBit rate                                 : 720 Kbps\nWidth                                    : 640 pixels\nHeight                                   : 240 pixels\nDisplay aspect ratio                     : 2.571\nFrame rate                               : 25.000 fps\nColor space                              : YUV\nChroma subsampling                       : 4:2:0\nBit depth                                : 8 bits\nScan type                                : Progressive\nCompression mode                         : Lossy\nBits/(Pixel*Frame)                       : 0.188\nStream size                              : 621 MiB (89%)\nWriting library                          : XviD 64\n\nAudio\nID                                       : 1\nFormat                                   : AC-3\nFormat/Info                              : Audio Coding 3\nMode extension                           : CM (complete main)\nFormat settings, Endianness              : Big\nCodec ID                                 : 2000\nDuration                                 : 2h 0mn\nBit rate mode                            : Constant\nBit rate                                 : 80.0 Kbps\nChannel(s)                               : 2 channels\nChannel positions                        : Front: L R\nSampling rate                            : 48.0 KHz\nBit depth                                : 16 bits\nCompression mode                         : Lossy\nStream size                              : 69.0 MiB (10%)\nAlignment                                : Aligned on interleaves\nInterleave, duration                     : 32 ms (0.80 video frame)\n\nScreens:\n &lt;a href=&quot;\nhttp://i.imgur.com/t1zKCzL.jpg&quot; rel=&quot;nofollow&quot; target=&quot;_NEW&quot;&gt;\nhttp://i.imgur.com/t1zKCzL.jpg&lt;/a&gt; &lt;a href=&quot;\nhttp://i.imgur.com/20fDRTq.jpg&quot; rel=&quot;nofollow&quot; target=&quot;_NEW&quot;&gt;\nhttp://i.imgur.com/20fDRTq.jpg&lt;/a&gt; &lt;a href=&quot;\nhttp://i.imgur.com/neTtQRJ.jpg&quot; rel=&quot;nofollow&quot; target=&quot;_NEW&quot;&gt;\nhttp://i.imgur.com/neTtQRJ.jpg&lt;/a&gt; &lt;a href=&quot;\nhttp://i.imgur.com/Jp1ZXnD.jpg&quot; rel=&quot;nofollow&quot; target=&quot;_NEW&quot;&gt;\nhttp://i.imgur.com/Jp1ZXnD.jpg&lt;/a&gt;\n","torrent":{"xt":"urn:btih:c37fdab8088b73e1d386d697b292241e4eff14a6","amp;dn":"Pain+%26amp%3B+Gain+2013+CAMRip+XviD+AC3+-+TODE","amp;tr":["udp%3A%2F%2Ftracker.openbittorrent.com%3A80","udp%3A%2F%2Fopen.demonii.com%3A1337","udp%3A%2F%2Ftracker.coppersurfer.tk%3A6969","udp%3A%2F%2Fexodus.desync.com%3A6969"],"infoHash":"c37fdab8088b73e1d386d697b292241e4eff14a6","infoHashBuffer":{"type":"Buffer","data":[195,127,218,184,8,139,115,225,211,134,214,151,178,146,36,30,78,255,20,166]},"announce":[],"urlList":[]}}